<svg width="342" height="115" viewBox="0 0 342 115" fill="none" xmlns="http://www.w3.org/2000/svg">
<path d="M289.224 2.48203C288.694 6.67546 287.883 10.8253 286.796 14.9041L286.742 15.1435C286.323 16.3314 285.7 17.4362 284.902 18.4064C284.807 18.5243 284.728 18.6533 284.667 18.7919C284.633 18.8472 284.615 18.9263 284.581 18.9816C284.272 19.8091 284.08 20.6767 284.011 21.5599C283.74 23.2528 283.769 24.984 284.099 26.6727C284.413 28.3622 284.971 29.9985 285.757 31.5297L282.852 35.5898C282.643 35.8788 282.502 36.2119 282.44 36.5648L281.082 44.0464L281.045 44.2057C280.841 45.6869 280.968 47.1972 281.417 48.6284C281.423 48.6933 281.454 48.7423 281.46 48.8072L283.236 52.8724C281.462 52.5961 279.668 52.4837 277.876 52.5359L277.851 52.5511C277.595 52.5822 277.339 52.6266 277.086 52.6835C276.331 52.7964 275.645 53.1849 275.161 53.7754C274.677 54.366 274.429 55.1176 274.463 55.8851C274.465 56.3171 274.536 56.7464 274.676 57.1565C274.908 57.8202 275.221 58.4536 275.608 59.0419L275.884 59.4868C278.936 63.4787 281.256 66.7278 282.835 69.2733L282.836 69.2723C283.548 70.3977 284.185 71.5693 284.74 72.7795L284.908 73.0513C286.4 76.0386 287.582 79.1705 288.435 82.396C285.132 88.3658 281.21 93.9645 276.733 99.1C276.023 99.9081 275.93 101.093 276.506 102.013C276.628 102.217 276.785 102.397 276.971 102.545C277.455 102.98 278.091 103.203 278.736 103.164C279.381 103.124 279.981 102.825 280.4 102.335C286.332 95.565 291.313 88.0086 295.206 79.8733C300.294 70.3967 303.63 60.062 305.055 49.3649C306.448 41.2713 306.291 32.9722 304.594 24.9109C304.109 22.5595 303.406 20.2574 302.497 18.0329C301.407 15.1841 299.926 11.7574 298.092 7.76239C297.333 6.03315 296.471 4.35137 295.509 2.72525C295.266 2.30335 294.976 1.90905 294.645 1.55078C294.353 1.16023 293.964 0.853165 293.518 0.661736C293.071 0.469704 292.583 0.399412 292.103 0.458307L291.984 0.42983C290.654 0.237003 289.424 1.15166 289.225 2.48352L289.224 2.48203Z" fill="black"/>
<path d="M58.3359 21.4062C57.6797 22.3437 56.9766 23.2344 56.2266 24.0781C55.5234 24.875 54.6328 25.5078 53.5547 25.9766C52.9922 29.2109 52.5234 32.4687 52.1484 35.75C51.8203 39.0312 51.4453 42.3125 51.0234 45.5937C50.6484 48.875 50.2031 52.1562 49.6875 55.4375C49.2188 58.6719 48.5625 61.8828 47.7188 65.0703L47.7891 65.9141C47.8828 66.8516 47.7656 67.7422 47.4375 68.5859C47.1094 69.4297 46.9688 70.3438 47.0156 71.3281C46.3594 72.9688 45.7969 74.7969 45.3281 76.8125C44.8594 78.7812 44.5781 80.6562 44.4844 82.4375C44.0156 83.2344 43.6172 84.1016 43.2891 85.0391C43.0078 85.9766 42.7031 86.9375 42.375 87.9219C42.0938 88.8594 41.7656 89.7734 41.3906 90.6641C41.0156 91.5078 40.5234 92.2812 39.9141 92.9844C39.7734 94.0625 39.4922 95.0703 39.0703 96.0078C38.6953 96.9922 38.25 97.9531 37.7344 98.8906C37.2656 99.8281 36.7969 100.742 36.3281 101.633C35.9062 102.57 35.6016 103.555 35.4141 104.586C34.6172 105.805 33.8203 106.977 33.0234 108.102C32.2266 109.273 31.5 110.492 30.8438 111.758C30.2344 112.039 29.6953 112.344 29.2266 112.672C28.8047 113.047 28.3828 113.375 27.9609 113.656C27.5391 113.984 27.0469 114.266 26.4844 114.5C25.9688 114.734 25.3359 114.852 24.5859 114.852C24.3984 114.852 24.2109 114.828 24.0234 114.781C23.8828 114.781 23.7188 114.781 23.5312 114.781C22.875 114.266 22.2188 113.75 21.5625 113.234C20.9062 112.766 20.2031 112.344 19.4531 111.969C19.4531 111.688 19.4062 111.453 19.3125 111.266C19.2656 111.078 19.2188 110.891 19.1719 110.703C19.125 110.516 19.1016 110.328 19.1016 110.141C19.1016 109.953 19.1484 109.719 19.2422 109.438C18.8203 109.156 18.3281 108.641 17.7656 107.891C17.25 107.188 16.9922 106.578 16.9922 106.062C16.9922 105.594 17.1562 105.359 17.4844 105.359C17.3906 104.891 17.2266 104.422 16.9922 103.953C16.8047 103.531 16.7109 103.086 16.7109 102.617C16.7109 102.289 16.8047 101.938 16.9922 101.562C16.4766 100.344 16.0078 99.0781 15.5859 97.7656C15.1641 96.5 14.8828 95.1875 14.7422 93.8281C14.2734 93.2188 13.8984 92.5156 13.6172 91.7188C13.3828 90.875 13.1953 90.0078 13.0547 89.1172C12.9141 88.2266 12.7969 87.3594 12.7031 86.5156C12.6094 85.625 12.4922 84.8047 12.3516 84.0547C12.3047 83.7734 12.1875 83.3281 12 82.7188C11.8125 82.0625 11.7188 81.6172 11.7188 81.3828C11.7188 81.1016 11.7656 80.8906 11.8594 80.75C12 80.6094 12.1172 80.4219 12.2109 80.1875C11.6484 77.9375 11.1797 75.6641 10.8047 73.3672C10.4766 71.0703 10.1484 68.7734 9.82031 66.4766C9.53906 64.1797 9.1875 61.9062 8.76562 59.6562C8.39062 57.3594 7.85156 55.1094 7.14844 52.9062V52.2734C7.14844 50.7734 6.5625 49.5781 5.39062 48.6875C5.625 47.9844 5.74219 47.3984 5.74219 46.9297C5.74219 46.3203 5.64844 45.7344 5.46094 45.1719C5.32031 44.6094 5.15625 44.0469 4.96875 43.4844C4.78125 42.9219 4.64062 42.3594 4.54688 41.7969C4.5 41.2344 4.54688 40.6719 4.6875 40.1094C4.17188 39.5469 3.75 38.9375 3.42188 38.2812C3.09375 37.625 2.67188 37.0625 2.15625 36.5937L2.08594 36.1719C2.08594 35.9375 2.15625 35.7266 2.29688 35.5391C2.39062 35.3516 2.4375 35.1406 2.4375 34.9062C2.4375 34.5781 2.36719 34.2969 2.22656 34.0625C2.03906 33.8281 1.85156 33.6172 1.66406 33.4297C1.42969 33.2422 1.24219 33.0547 1.10156 32.8672C0.914062 32.6797 0.820312 32.4687 0.820312 32.2344C0.820312 31.6719 1.00781 31.2266 1.38281 30.8984C1.75781 30.5703 2.17969 30.2891 2.64844 30.0547C3.11719 29.7734 3.5625 29.4922 3.98438 29.2109C4.45312 28.9297 4.75781 28.5312 4.89844 28.0156C5.27344 28.1094 5.64844 28.1797 6.02344 28.2266C6.39844 28.2266 6.77344 28.3203 7.14844 28.5078C7.19531 28.4609 7.21875 28.3906 7.21875 28.2969C7.21875 28.1562 6.98438 28.0391 6.51562 27.9453C6.09375 27.8047 5.8125 27.6406 5.67188 27.4531C6.04688 27.3594 6.32812 27.3125 6.51562 27.3125C7.45312 27.3125 8.34375 27.5469 9.1875 28.0156C10.0781 28.4844 10.9219 28.9766 11.7188 29.4922C11.8125 29.9141 11.8359 30.3594 11.7891 30.8281C11.7422 31.25 11.8828 31.6484 12.2109 32.0234C12.1641 32.2578 12.1406 32.4687 12.1406 32.6562C12.1875 32.8437 12.2109 33.0312 12.2109 33.2187C12.2109 33.4531 12.1641 33.6641 12.0703 33.8516C12.0234 33.9922 11.9062 34.0625 11.7188 34.0625C12.0469 34.625 12.2578 35.3047 12.3516 36.1016C12.4922 36.8984 12.6094 37.7187 12.7031 38.5625C12.8438 39.4062 13.0078 40.2266 13.1953 41.0234C13.3828 41.8203 13.7344 42.5234 14.25 43.1328C14.1562 43.4141 14.0859 43.6953 14.0391 43.9766C14.0391 44.2578 14.0391 44.5625 14.0391 44.8906C14.0391 46.3906 14.2266 47.8672 14.6016 49.3203C14.9766 50.7734 15.1641 52.25 15.1641 53.75C15.1641 54.6406 15.0234 55.4609 14.7422 56.2109C14.7422 56.6328 14.8828 56.9844 15.1641 57.2656C15.4453 57.5 15.6328 57.8281 15.7266 58.25C15.4922 58.8125 15.375 59.3516 15.375 59.8672C15.375 60.9453 15.5859 61.9766 16.0078 62.9609C16.4297 63.8984 16.6406 64.8828 16.6406 65.9141C16.6406 66.2422 16.5938 66.5469 16.5 66.8281C16.4062 67.1094 16.3125 67.3672 16.2188 67.6016C16.6406 68.0234 16.8516 68.5625 16.8516 69.2188C16.8984 69.875 17.1094 70.4141 17.4844 70.8359C17.4375 71.0703 17.3906 71.3047 17.3438 71.5391C17.3438 71.7734 17.2266 71.9609 16.9922 72.1016C17.2266 72.4297 17.3438 72.875 17.3438 73.4375C17.3906 73.9531 17.6016 74.2578 17.9766 74.3516C17.8828 74.5859 17.8125 74.7969 17.7656 74.9844C17.7188 75.1719 17.6953 75.3828 17.6953 75.6172C17.6953 76.1328 17.7656 76.6016 17.9062 77.0234L18.3281 78.2891C18.4688 78.7109 18.5625 79.1562 18.6094 79.625C18.7031 80.0938 18.6562 80.6094 18.4688 81.1719C18.6562 81.4531 18.7969 81.7812 18.8906 82.1562C19.0312 82.5312 19.1484 82.9297 19.2422 83.3516C19.3359 83.7266 19.4766 84.0781 19.6641 84.4062C19.8516 84.6875 20.1328 84.875 20.5078 84.9688C20.5547 85.25 20.4375 85.3906 20.1562 85.3906C19.9219 85.3906 19.8047 85.5078 19.8047 85.7422C19.8047 86.1172 19.9453 86.5859 20.2266 87.1484C20.5078 87.6641 20.7656 88.0391 21 88.2734C20.9531 88.4609 20.9297 88.6484 20.9297 88.8359V89.4688C20.9297 90.125 21.0234 90.8047 21.2109 91.5078C21.3984 92.1641 21.5625 92.8203 21.7031 93.4766C21.8906 94.1797 22.0312 94.8594 22.125 95.5156C22.2188 96.1719 22.1719 96.7812 21.9844 97.3438C22.3594 98 22.6875 98.7031 22.9688 99.4531C23.25 100.203 23.6953 100.836 24.3047 101.352C24.3047 102.148 24.4688 102.898 24.7969 103.602C25.125 104.352 25.5469 105.055 26.0625 105.711C26.5312 105.711 26.8828 105.547 27.1172 105.219C27.3516 104.938 27.5391 104.609 27.6797 104.234C27.8203 103.859 27.9844 103.508 28.1719 103.18C28.3594 102.852 28.6641 102.664 29.0859 102.617C29.1328 102.148 29.25 101.75 29.4375 101.422C29.6719 101.141 29.8828 100.836 30.0703 100.508C30.3047 100.18 30.4922 99.8281 30.6328 99.4531C30.8203 99.0781 30.8906 98.6094 30.8438 98.0469L31.6172 97.8359C31.8516 96.5703 32.2031 95.4219 32.6719 94.3906C33.1875 93.4062 33.75 92.375 34.3594 91.2969V90.9453C34.3594 90.4766 34.4297 90.0781 34.5703 89.75C34.7109 89.4219 34.7344 89 34.6406 88.4844C34.9688 88.3906 35.2031 88.2031 35.3438 87.9219C35.4844 87.6406 35.6016 87.3594 35.6953 87.0781C35.7891 86.75 35.8828 86.4453 35.9766 86.1641C36.1172 85.8359 36.3281 85.6016 36.6094 85.4609V84.8984C36.5625 84.4766 36.5859 84.0781 36.6797 83.7031C36.8203 83.2812 36.7969 82.8594 36.6094 82.4375C36.9844 82.2969 37.2656 82.0625 37.4531 81.7344C37.6406 81.4062 37.7812 81.0547 37.875 80.6797C38.0156 80.3047 38.0859 79.9062 38.0859 79.4844C38.1328 79.0625 38.1562 78.6875 38.1562 78.3594C38.4844 77.9375 38.7188 77.4453 38.8594 76.8828C39 76.2734 39.1172 75.6641 39.2109 75.0547C39.3047 74.4453 39.4219 73.8594 39.5625 73.2969C39.75 72.7344 40.0312 72.2422 40.4062 71.8203C40.3125 71.5859 40.2656 71.375 40.2656 71.1875V70.5547C40.2656 69.6641 40.4062 68.8672 40.6875 68.1641C40.9688 67.4141 41.2266 66.6172 41.4609 65.7734C42.0703 63.6641 42.4922 61.5078 42.7266 59.3047C43.0078 57.0547 43.4062 54.8516 43.9219 52.6953C43.9688 52.4609 44.0625 52.0859 44.2031 51.5703C44.3438 51.0547 44.4844 50.5391 44.625 50.0234C44.7656 49.4609 44.8828 48.9687 44.9766 48.5469C45.1172 48.0781 45.1875 47.7734 45.1875 47.6328C45.1875 47.2578 45.0938 47 44.9062 46.8594C44.7656 46.7187 44.6953 46.4844 44.6953 46.1562C44.9766 45.7344 45.1641 45.1953 45.2578 44.5391C45.3516 43.8828 45.4219 43.2031 45.4688 42.5C45.5156 41.75 45.5156 41.0469 45.4688 40.3906C45.4688 39.6875 45.4688 39.0781 45.4688 38.5625C45.4688 38.0469 45.5859 37.3906 45.8203 36.5937C46.0547 35.7969 46.2188 35.0937 46.3125 34.4844C46.5469 32.8906 46.6875 31.3203 46.7344 29.7734C46.8281 28.1797 46.9219 26.5859 47.0156 24.9922C47.3438 24.8047 47.5781 24.5703 47.7188 24.2891C47.8594 23.9609 47.9297 23.6328 47.9297 23.3047C47.9297 22.7891 47.8594 22.2969 47.7188 21.8281C47.625 21.3594 47.5781 20.8672 47.5781 20.3516C47.5781 20.1172 47.6016 19.8828 47.6484 19.6484C47.6953 19.3672 47.8125 19.1328 48 18.9453C47.9531 18.6172 47.9062 18.2891 47.8594 17.9609C47.8594 17.6328 47.7422 17.3516 47.5078 17.1172C47.7422 16.5078 47.8594 15.8984 47.8594 15.2891C47.8594 14.7266 47.7891 14.1641 47.6484 13.6016C47.5547 13.0391 47.5078 12.4531 47.5078 11.8437C47.5078 10.6719 48 9.82812 48.9844 9.3125H49.9688C50.4375 9.3125 50.9062 9.28906 51.375 9.24218C51.8438 9.19531 52.3359 9.05468 52.8516 8.82031C53.4609 9.47656 54.0938 10.2031 54.75 11C55.4062 11.75 55.9688 12.5703 56.4375 13.4609C56.9062 14.3516 57.2578 15.2656 57.4922 16.2031C57.7266 17.1406 57.75 18.125 57.5625 19.1562C57.75 19.5312 57.8672 19.9062 57.9141 20.2812C57.9609 20.6562 58.1016 21.0312 58.3359 21.4062ZM43.9922 59.7266C43.8047 59.6797 43.6641 59.6094 43.5703 59.5156C43.5234 59.375 43.3828 59.2812 43.1484 59.2344V60.0078H43.7109L43.9922 59.7266Z" fill="black"/>
<path d="M103.055 47.2812V47.5625C102.727 47.6562 102.562 47.8906 102.562 48.2656C102.047 48.5 101.508 48.6875 100.945 48.8281C100.383 48.9219 99.8438 49.0859 99.3281 49.3203C98.8125 49.2734 98.2734 49.25 97.7109 49.25C97.1953 49.2031 96.6797 49.1797 96.1641 49.1797C94.7578 49.1797 93.3516 49.2266 91.9453 49.3203C90.5391 49.4141 89.1328 49.4141 87.7266 49.3203C87.0703 49.6953 86.3438 50 85.5469 50.2344C84.7969 50.4219 84.0703 50.5156 83.3672 50.5156C82.8047 50.5156 82.3125 50.4453 81.8906 50.3047C80.7656 50.8672 79.5234 51.3359 78.1641 51.7109C76.8516 52.0859 75.5156 52.4609 74.1562 52.8359C72.7969 53.1641 71.4844 53.5625 70.2188 54.0312C69 54.4531 67.9219 55.0625 66.9844 55.8594C66.8906 56.5156 66.8203 57.1719 66.7734 57.8281C66.7266 58.4375 66.7031 59.0469 66.7031 59.6562C66.7031 60.3125 66.7266 60.9219 66.7734 61.4844C66.8672 62.0469 67.0312 62.6094 67.2656 63.1719C67.5 63.2656 67.7578 63.3359 68.0391 63.3828C68.3672 63.4297 68.6484 63.4531 68.8828 63.4531C69.1172 63.4531 69.3516 63.4297 69.5859 63.3828C69.8203 63.2891 69.9844 63.125 70.0781 62.8906C70.7812 62.7969 71.4844 62.7734 72.1875 62.8203C72.8906 62.8203 73.5938 62.8203 74.2969 62.8203C75 62.8203 75.6797 62.7969 76.3359 62.75C77.0391 62.7031 77.7188 62.5859 78.375 62.3984C79.125 62.2109 79.8516 62.0937 80.5547 62.0469C81.3047 62 82.0312 61.9531 82.7344 61.9062C83.4375 61.8594 84.1641 61.7891 84.9141 61.6953C85.6641 61.5547 86.4375 61.2969 87.2344 60.9219C87.8438 61.1562 88.4531 61.2734 89.0625 61.2734C89.7188 61.2734 90.3516 61.3203 90.9609 61.4141C91.2891 61.6484 91.5469 61.9062 91.7344 62.1875C91.9688 62.4687 92.0859 62.7969 92.0859 63.1719C92.0859 63.8281 91.8516 64.4844 91.3828 65.1406C90.9141 65.7969 90.5391 66.4062 90.2578 66.9688H89.4844C88.3594 66.9688 87.2578 67.1328 86.1797 67.4609C85.1484 67.7422 84.0938 68.0938 83.0156 68.5156C81.9844 68.8906 80.9297 69.2422 79.8516 69.5703C78.8203 69.8516 77.7422 69.9922 76.6172 69.9922C76.4297 69.9922 76.3125 70.1094 76.2656 70.3438C76.2656 70.5312 76.2188 70.6719 76.125 70.7656C75.8906 70.7188 75.5391 70.6953 75.0703 70.6953C73.9922 70.6953 72.9609 70.8125 71.9766 71.0469C70.9922 71.2812 69.9844 71.3984 68.9531 71.3984C68.6719 71.3984 68.3906 71.3984 68.1094 71.3984C67.8281 71.3516 67.5469 71.3047 67.2656 71.2578C67.0312 71.6328 66.7266 71.8906 66.3516 72.0312C65.9766 72.125 65.625 72.3125 65.2969 72.5938C65.1562 73.0156 65.0625 73.5312 65.0156 74.1406C65.0156 74.75 64.9922 75.3828 64.9453 76.0391C64.9453 76.6484 64.8984 77.2344 64.8047 77.7969C64.7109 78.3594 64.5234 78.8047 64.2422 79.1328C64.2891 79.3672 64.4766 79.4609 64.8047 79.4141C65.1328 79.3203 65.2969 79.4609 65.2969 79.8359C65.2969 80.2578 65.25 80.7031 65.1562 81.1719C65.0625 81.6406 65.0156 82.1094 65.0156 82.5781C65.0156 83.4688 65.1094 84.4531 65.2969 85.5312C65.5312 86.5625 65.8594 87.5234 66.2812 88.4141C66.75 89.3047 67.3594 90.0547 68.1094 90.6641C68.8594 91.2266 69.7969 91.5078 70.9219 91.5078C71.6719 91.5078 72.375 91.3672 73.0312 91.0859C73.6875 90.8047 74.2266 90.3359 74.6484 89.6797L75 89.6094C75.1875 89.6094 75.3516 89.6328 75.4922 89.6797C75.6797 89.7266 75.8672 89.75 76.0547 89.75C76.3359 89.75 76.6875 89.5859 77.1094 89.2578C77.5781 88.8828 78.0703 88.4609 78.5859 87.9922C79.1484 87.5234 79.7109 87.0781 80.2734 86.6562C80.8359 86.1875 81.375 85.8594 81.8906 85.6719C82.2188 85.0156 82.5234 84.3594 82.8047 83.7031C83.1328 83.0469 83.6016 82.5312 84.2109 82.1562V80.1172C84.6797 79.6016 85.1719 79.1328 85.6875 78.7109C86.25 78.2891 86.6719 77.75 86.9531 77.0938C87.1875 77.1875 87.3984 77.2578 87.5859 77.3047C87.8203 77.3516 88.0547 77.375 88.2891 77.375C88.5234 77.375 88.7578 77.3516 88.9922 77.3047C89.2734 77.2578 89.5312 77.1875 89.7656 77.0938C90.1406 77.6094 90.4219 78.1953 90.6094 78.8516C90.8438 79.4609 91.125 80.0469 91.4531 80.6094C91.0312 81.4531 90.5391 82.4609 89.9766 83.6328C89.4141 84.8047 88.8047 85.9766 88.1484 87.1484C87.4922 88.3203 86.7891 89.4453 86.0391 90.5234C85.3359 91.5547 84.6328 92.3516 83.9297 92.9141C83.7891 93.0547 83.4844 93.2188 83.0156 93.4062C82.5 93.7812 82.0312 94.1328 81.6094 94.4609C81.1875 94.8359 80.7891 95.2578 80.4141 95.7266C79.0547 96.1484 77.7422 96.7109 76.4766 97.4141C75.2578 98.1172 74.0391 98.7969 72.8203 99.4531C72.2578 99.3125 71.6484 99.2422 70.9922 99.2422C70.4297 99.2422 69.8672 99.2656 69.3047 99.3125C68.7422 99.4062 68.1328 99.4531 67.4766 99.4531C67.2891 99.2188 67.0078 99.0547 66.6328 98.9609C66.3047 98.9141 66.1875 98.6797 66.2812 98.2578C64.6875 98.1641 63.3984 97.7188 62.4141 96.9219C61.4297 96.1719 60.5859 95.2344 59.8828 94.1094C59.2266 92.9844 58.6875 91.7656 58.2656 90.4531C57.8438 89.1406 57.3984 87.875 56.9297 86.6562V86.4453C56.9297 86.2109 57.0234 86.0703 57.2109 86.0234C57.3984 85.9766 57.4922 85.8359 57.4922 85.6016C57.4922 85.5078 57.4688 85.4375 57.4219 85.3906C57.2812 84.875 57.1641 84.4297 57.0703 84.0547C56.9766 83.6797 56.9297 83.2344 56.9297 82.7188C56.9297 81.9688 56.9766 81.2422 57.0703 80.5391C57.1641 79.7891 57.2109 79.0391 57.2109 78.2891C57.2109 77.5391 57.1172 76.8828 56.9297 76.3203C57.1172 76.0859 57.2812 75.7812 57.4219 75.4062C57.5156 74.9844 57.5859 74.5625 57.6328 74.1406C57.6797 73.7188 57.7031 73.2969 57.7031 72.875C57.75 72.4531 57.8203 72.0781 57.9141 71.75C57.7266 71.2344 57.5625 70.7891 57.4219 70.4141C57.2812 69.9922 57.2109 69.5 57.2109 68.9375V68.4453C57.6797 67.6484 58.0781 66.8281 58.4062 65.9844C58.7344 65.1406 59.0859 64.2734 59.4609 63.3828V63.1719C59.4609 61.8125 59.4141 60.4531 59.3203 59.0937C59.2266 57.7344 59.1797 56.375 59.1797 55.0156V53.6797C59.1797 53.2109 59.2031 52.7656 59.25 52.3437C59.625 52.1562 59.9062 51.8984 60.0938 51.5703C60.2812 51.2422 60.5625 50.9844 60.9375 50.7969H63.2578L63.6797 50.0937C63.8203 49.8594 63.9141 49.6016 63.9609 49.3203C64.4766 49.1797 64.9688 48.9922 65.4375 48.7578C65.9531 48.4766 66.4219 48.1953 66.8438 47.9141C67.5 47.5391 68.0859 47.2109 68.6016 46.9297C69.1641 46.6016 69.7031 46.3437 70.2188 46.1562C70.7812 45.9219 71.3672 45.7344 71.9766 45.5937C72.5859 45.4531 73.2891 45.3359 74.0859 45.2422C74.4609 45.2422 74.6953 45.1719 74.7891 45.0312C74.9297 44.8906 75.1172 44.7266 75.3516 44.5391C75.9141 44.6328 76.4766 44.7266 77.0391 44.8203C77.6016 44.8672 78.1641 44.8906 78.7266 44.8906C79.8516 44.8906 80.9062 44.6797 81.8906 44.2578C83.2969 44.2578 84.6797 44.2344 86.0391 44.1875C87.4453 44.1406 88.8516 44.1172 90.2578 44.1172C91.4766 44.1172 92.6953 44.1641 93.9141 44.2578C95.1328 44.3516 96.3281 44.5156 97.5 44.75C97.9219 44.6094 98.3906 44.5391 98.9062 44.5391C99.4688 44.5391 100.031 44.6094 100.594 44.75C101.203 44.8437 101.789 44.8437 102.352 44.75C102.398 45.2656 102.516 45.7109 102.703 46.0859C102.938 46.4141 103.055 46.8125 103.055 47.2812Z" fill="black"/>
<path d="M189.609 79.7656C189.516 80.4688 189.258 81.0078 188.836 81.3828C188.461 81.7578 188.016 82.1094 187.5 82.4375C187.266 82.3906 187.031 82.3672 186.797 82.3672C186.609 82.3203 186.398 82.2969 186.164 82.2969C184.711 82.25 183.328 82.4375 182.016 82.8594C180.75 83.2812 179.438 83.5859 178.078 83.7734C177.609 83.8672 177.164 83.9141 176.742 83.9141C176.367 83.8672 175.969 83.8906 175.547 83.9844C174.047 84.2188 172.453 84.4062 170.766 84.5469C169.078 84.6875 167.391 84.875 165.703 85.1094C164.016 85.2969 162.352 85.5547 160.711 85.8828C159.117 86.1641 157.617 86.5859 156.211 87.1484C156.07 87.0547 155.93 86.9609 155.789 86.8672C155.648 86.7266 155.484 86.6562 155.297 86.6562C154.828 86.6562 154.383 86.7266 153.961 86.8672C153.539 87.0078 153.117 87.0547 152.695 87.0078C152.227 87.2891 151.711 87.5 151.148 87.6406C150.633 87.7344 150.094 87.8281 149.531 87.9219C149.016 87.9688 148.5 88.0625 147.984 88.2031C147.469 88.3438 146.977 88.6016 146.508 88.9766C146.133 88.7891 145.664 88.6953 145.102 88.6953C144.586 88.6484 144.234 88.4609 144.047 88.1328C142.969 88.6484 141.82 88.9766 140.602 89.1172C139.43 89.2578 138.234 89.3047 137.016 89.2578C136.219 89.2109 135.305 89.0938 134.273 88.9062C133.242 88.7188 132.211 88.4609 131.18 88.1328C130.148 87.7578 129.188 87.3359 128.297 86.8672C127.406 86.3516 126.727 85.7422 126.258 85.0391C125.93 84.5703 125.695 84.0547 125.555 83.4922C125.414 82.9297 125.086 82.5078 124.57 82.2266C124.711 81.1484 124.875 80.0938 125.062 79.0625C125.25 78.0312 125.438 76.9766 125.625 75.8984C126.562 75.1016 127.453 74.2578 128.297 73.3672C129.141 72.4766 129.938 71.5391 130.688 70.5547C131.578 70.1328 132.398 69.6172 133.148 69.0078C133.945 68.3984 134.719 67.7891 135.469 67.1797C136.266 66.5234 137.039 65.8906 137.789 65.2812C138.586 64.6719 139.43 64.1328 140.32 63.6641C140.461 63.3359 140.648 63.0781 140.883 62.8906C141.164 62.6562 141.445 62.4453 141.727 62.2578C142.008 62.0234 142.266 61.7891 142.5 61.5547C142.734 61.2734 142.898 60.9453 142.992 60.5703C144.633 59.5859 146.062 58.3437 147.281 56.8437C148.5 55.3437 149.297 53.6562 149.672 51.7812C148.875 51.125 147.961 50.7031 146.93 50.5156C145.945 50.2812 144.914 50.1172 143.836 50.0234C142.898 49.9766 141.914 49.9766 140.883 50.0234C139.898 50.0703 138.891 50.0469 137.859 49.9531C136.828 50.2812 135.75 50.4922 134.625 50.5859C133.547 50.6797 132.469 50.7734 131.391 50.8672C130.312 50.9141 129.234 51.0547 128.156 51.2891C127.125 51.4766 126.117 51.8516 125.133 52.4141C124.945 52.4141 124.758 52.3906 124.57 52.3437C124.43 52.2969 124.266 52.2734 124.078 52.2734C122.578 52.2266 121.172 52.5312 119.859 53.1875C118.547 53.7969 117.258 54.4062 115.992 55.0156C115.898 55.2031 115.852 55.3437 115.852 55.4375C115.852 55.7187 115.898 56 115.992 56.2812C116.133 56.5156 116.203 56.7734 116.203 57.0547C116.156 57.1016 116.133 57.1484 116.133 57.1953C116.133 57.2422 116.109 57.2891 116.062 57.3359C116.016 57.5703 115.945 57.7812 115.852 57.9687C115.805 58.1562 115.734 58.3672 115.641 58.6016C115.125 60.1016 114.844 61.5781 114.797 63.0312C114.75 64.25 114.75 65.4453 114.797 66.6172C114.844 67.7891 114.844 68.9844 114.797 70.2031C114.703 71.7031 114.469 73.1094 114.094 74.4219C114.328 75.5469 114.539 76.7422 114.727 78.0078C114.914 79.2266 115.148 80.4453 115.43 81.6641C115.711 82.8828 116.039 84.0781 116.414 85.25C116.836 86.375 117.375 87.4531 118.031 88.4844C117.984 88.5781 118.008 88.6484 118.102 88.6953C118.195 88.7422 118.289 88.7656 118.383 88.7656H118.945C119.18 88.7656 119.273 88.8594 119.227 89.0469C119.32 89.1875 119.391 89.3281 119.438 89.4688C119.484 89.5625 119.578 89.6562 119.719 89.75C119.812 89.8906 119.812 90.0781 119.719 90.3125C119.672 91.25 119.438 92.1172 119.016 92.9141C118.594 93.7109 118.336 94.5781 118.242 95.5156C117.68 95.6562 117.164 95.7266 116.695 95.7266C115.898 95.6797 115.195 95.4453 114.586 95.0234C113.977 94.6484 113.414 94.1797 112.898 93.6172C112.383 93.0547 111.891 92.4922 111.422 91.9297C110.953 91.3203 110.438 90.8047 109.875 90.3828C109.547 89.0703 109.219 87.6172 108.891 86.0234C108.609 84.4297 108.117 83.0703 107.414 81.9453C107.602 81.5234 107.695 81.0078 107.695 80.3984C107.742 79.4609 107.648 78.5469 107.414 77.6562C107.227 76.7188 107.18 75.7812 107.273 74.8438C107.273 74.3281 107.32 73.8125 107.414 73.2969C107.555 72.7812 107.648 72.2656 107.695 71.75C107.742 70.9531 107.648 70.1797 107.414 69.4297C107.227 68.6797 107.156 67.9062 107.203 67.1094C107.25 66.7344 107.32 66.3828 107.414 66.0547C107.555 65.6797 107.742 65.3516 107.977 65.0703C107.742 64.5078 107.672 63.9687 107.766 63.4531C107.812 62.6562 107.906 61.9062 108.047 61.2031C108.188 60.5 108.281 59.7969 108.328 59.0937C108.328 58.7187 108.305 58.3672 108.258 58.0391C108.211 57.6641 108.141 57.3125 108.047 56.9844L107.414 56.7734C107.133 56.7734 106.852 56.8437 106.57 56.9844C106.336 57.125 106.125 57.2891 105.938 57.4766C105.75 57.6641 105.586 57.8281 105.445 57.9687C105.305 58.0625 105.164 58.1094 105.023 58.1094C104.93 58.1094 104.812 58.1094 104.672 58.1094C104.578 58.0625 104.484 58.0391 104.391 58.0391C104.297 58.0391 104.109 58.1328 103.828 58.3203C103.594 58.5078 103.289 58.7187 102.914 58.9531C102.586 59.1406 102.258 59.3516 101.93 59.5859C101.602 59.7734 101.344 59.8906 101.156 59.9375C100.641 59.8437 100.219 59.6797 99.8906 59.4453C99.6094 59.1641 99.3281 58.9062 99.0469 58.6719C98.8125 58.3906 98.5547 58.1562 98.2734 57.9687C97.9922 57.7344 97.6406 57.6406 97.2188 57.6875C97.0781 57.4062 97.0078 57.1016 97.0078 56.7734C96.9609 56.4453 96.9609 56.1172 97.0078 55.7891V54.6641C97.3359 54.0547 97.7812 53.5625 98.3438 53.1875C98.8594 52.7656 99.4219 52.4141 100.031 52.1328L101.859 51.2891C102.469 51.0078 103.031 50.6562 103.547 50.2344H104.18C105.023 50.2812 105.75 50.1172 106.359 49.7422C107.016 49.3672 107.625 48.9453 108.188 48.4766C108.75 47.9609 109.312 47.4453 109.875 46.9297C110.484 46.4141 111.141 46.0156 111.844 45.7344C112.359 45.9687 112.898 46.1797 113.461 46.3672C114.023 46.5078 114.609 46.6016 115.219 46.6484C115.828 46.6484 116.461 46.5547 117.117 46.3672C117.773 46.1797 118.289 45.8281 118.664 45.3125C118.898 45.4062 119.086 45.4766 119.227 45.5234C119.414 45.5234 119.625 45.5234 119.859 45.5234C120.562 45.5703 121.266 45.4766 121.969 45.2422C122.672 44.9609 123.352 44.6328 124.008 44.2578C124.945 44.3047 125.859 44.2578 126.75 44.1172C127.688 43.9297 128.602 43.7422 129.492 43.5547C130.43 43.3672 131.344 43.2031 132.234 43.0625C133.172 42.875 134.109 42.8047 135.047 42.8516C136.594 42.8984 138.117 42.7578 139.617 42.4297C141.117 42.1016 142.641 41.9844 144.188 42.0781C145.266 42.125 146.32 42.2187 147.352 42.3594C148.43 42.4531 149.508 42.4766 150.586 42.4297C151.195 42.7109 151.734 42.9687 152.203 43.2031C152.719 43.3906 153.352 43.4375 154.102 43.3437C155.602 44.6094 156.961 46.0859 158.18 47.7734V48.9687C158.133 50.0469 157.945 51.1016 157.617 52.1328C157.289 53.1641 156.891 54.1953 156.422 55.2266C156 56.2109 155.531 57.1953 155.016 58.1797C154.5 59.1172 154.008 60.0547 153.539 60.9922C150.492 63.7578 147.445 66.5 144.398 69.2188C141.352 71.9375 138.211 74.5625 134.977 77.0938C134.883 77.5625 134.742 77.9844 134.555 78.3594C134.414 78.7344 134.32 79.1328 134.273 79.5547C134.273 79.7891 134.297 79.9766 134.344 80.1172C134.672 80.2109 134.953 80.3984 135.188 80.6797C135.469 80.9141 135.562 81.2422 135.469 81.6641H136.102C136.336 81.6641 136.453 81.7578 136.453 81.9453L137.578 82.0156C139.359 82.1094 141.141 82.0625 142.922 81.875C144.703 81.6875 146.484 81.4766 148.266 81.2422C150.094 81.0078 151.898 80.7969 153.68 80.6094C155.461 80.375 157.242 80.2344 159.023 80.1875C159.445 80.0469 159.891 79.9297 160.359 79.8359C160.828 79.7422 161.25 79.5547 161.625 79.2734H161.836C162.164 79.2734 162.398 79.3672 162.539 79.5547C162.727 79.7422 162.984 79.8594 163.312 79.9062C163.547 79.9062 163.781 79.8594 164.016 79.7656C164.297 79.6719 164.578 79.6016 164.859 79.5547C165.516 79.3672 166.195 79.25 166.898 79.2031C167.648 79.1562 168.375 79.0859 169.078 78.9922C171.797 78.7578 174.492 78.6172 177.164 78.5703C179.836 78.4766 182.508 78.125 185.18 77.5156C185.414 77.8438 185.742 78.0781 186.164 78.2188C186.586 78.3125 187.031 78.4297 187.5 78.5703C187.969 78.6641 188.391 78.7812 188.766 78.9219C189.188 79.0625 189.469 79.3438 189.609 79.7656Z" fill="black"/>
<path d="M204.656 83.1406C204.656 83.9375 204.445 84.6406 204.023 85.25C203.648 85.8125 203.508 86.5156 203.602 87.3594C202.945 87.7344 202.406 88.2266 201.984 88.8359C201.562 89.4453 201.164 90.0781 200.789 90.7344C197.695 92.75 194.367 94.3672 190.805 95.5859C187.289 96.8516 183.656 97.4844 179.906 97.4844C179.672 97.4844 179.461 97.3672 179.273 97.1328C179.086 96.9453 178.898 96.7344 178.711 96.5C178.523 96.2656 178.312 96.0312 178.078 95.7969C177.891 95.6094 177.656 95.5156 177.375 95.5156C177.047 95.5156 176.789 95.5859 176.602 95.7266C176.602 95.6328 176.602 95.5391 176.602 95.4453C176.648 95.3984 176.672 95.3281 176.672 95.2344C176.672 94.6719 176.602 94.0859 176.461 93.4766C176.32 92.9141 176.25 92.3516 176.25 91.7891C176.25 91.1328 176.367 90.5938 176.602 90.1719H177.445C177.914 90.1719 178.359 90.1484 178.781 90.1016C179.25 90.0078 179.742 89.9609 180.258 89.9609C180.773 89.9609 181.242 90.1016 181.664 90.3828C184.242 90.2891 186.68 89.8203 188.977 88.9766C191.32 88.0859 193.688 87.2188 196.078 86.375C196.453 85.8594 196.664 85.2969 196.711 84.6875C196.805 84.0312 196.992 83.4219 197.273 82.8594C196.055 81.8281 194.812 81.0312 193.547 80.4688C192.328 79.8594 190.898 79.6484 189.258 79.8359C188.273 79.2266 187.219 78.875 186.094 78.7812C185.016 78.6875 183.914 78.5469 182.789 78.3594C182.508 78.3125 182.203 78.2656 181.875 78.2188C181.594 78.125 181.289 78.0781 180.961 78.0781C180.727 78.0781 180.492 78.1484 180.258 78.2891C180.07 78.3828 180.023 78.5469 180.117 78.7812C179.883 78.4062 179.555 78.1953 179.133 78.1484C178.758 78.0547 178.43 77.8672 178.148 77.5859C176.648 77.4922 175.336 77.2344 174.211 76.8125C173.086 76.3438 171.844 75.8281 170.484 75.2656C170.109 75.125 169.734 75.0312 169.359 74.9844C169.031 74.8906 168.703 74.75 168.375 74.5625C167.531 74.1406 166.852 73.5781 166.336 72.875C165.82 72.1719 165.422 71.3984 165.141 70.5547C164.812 69.6641 164.578 68.75 164.438 67.8125C164.297 66.875 164.156 66.0078 164.016 65.2109C164.438 64.4609 164.836 63.6875 165.211 62.8906C165.539 62.0937 165.82 61.25 166.055 60.3594C166.336 60.2187 166.617 60.1016 166.898 60.0078C167.18 59.9141 167.484 59.7969 167.812 59.6562C167.766 59.5625 167.742 59.4453 167.742 59.3047C167.742 59.0703 167.812 58.8359 167.953 58.6016C168.141 58.3672 168.188 58.1328 168.094 57.8984C169.125 56.9609 170.109 56 171.047 55.0156C172.031 53.9844 172.875 52.8594 173.578 51.6406C174.281 51.4062 174.844 51.0547 175.266 50.5859C175.688 50.1172 176.109 49.6484 176.531 49.1797C176.953 48.6641 177.422 48.2187 177.938 47.8437C178.453 47.4219 179.109 47.1641 179.906 47.0703C180.094 46.7422 180.352 46.4844 180.68 46.2969C181.008 46.0625 181.336 45.8516 181.664 45.6641C181.992 45.4766 182.297 45.2656 182.578 45.0312C182.859 44.7969 183.07 44.4687 183.211 44.0469C183.961 44.0469 184.641 43.9062 185.25 43.625C185.906 43.3437 186.539 43.0391 187.148 42.7109C187.758 42.3828 188.367 42.0781 188.977 41.7969C189.633 41.5156 190.336 41.375 191.086 41.375C191.273 41.375 191.461 41.3984 191.648 41.4453C191.836 41.4453 192.047 41.4687 192.281 41.5156C192.609 41.8437 192.82 42.2422 192.914 42.7109C193.055 43.1328 193.148 43.6016 193.195 44.1172C193.242 44.6328 193.266 45.1484 193.266 45.6641C193.312 46.1797 193.406 46.6484 193.547 47.0703C193.125 47.8672 192.656 48.6641 192.141 49.4609C191.672 50.2578 191.039 50.8672 190.242 51.2891H190.102C189.773 51.3359 189.469 51.2656 189.188 51.0781C188.906 50.8906 188.578 50.7969 188.203 50.7969C187.969 50.7969 187.781 50.8672 187.641 51.0078L187.289 51.3594C187.195 51.4531 187.055 51.5469 186.867 51.6406C186.727 51.7344 186.516 51.7344 186.234 51.6406C185.578 51.875 185.32 52.2734 185.461 52.8359C184.57 52.9297 183.82 53.2109 183.211 53.6797C182.602 54.1016 182.039 54.5937 181.523 55.1562C181.008 55.6719 180.492 56.1641 179.977 56.6328C179.461 57.0547 178.852 57.2891 178.148 57.3359C177.352 58.7422 176.367 59.9844 175.195 61.0625C174.07 62.1406 173.133 63.3594 172.383 64.7188C172.523 65.0938 172.617 65.4922 172.664 65.9141C172.711 66.3359 172.781 66.7812 172.875 67.25C173.297 67.8125 173.789 68.3047 174.352 68.7266C174.961 69.1484 175.547 69.5703 176.109 69.9922H176.32C177.258 69.9922 178.125 70.1797 178.922 70.5547C179.719 70.8828 180.562 71.0469 181.453 71.0469C181.922 71.0469 182.32 70.9531 182.648 70.7656C183.867 71.0469 185.062 71.2812 186.234 71.4688C187.453 71.6562 188.672 71.7969 189.891 71.8906C190.5 71.9844 191.109 72.0312 191.719 72.0312C192.375 72.0312 192.984 72.1016 193.547 72.2422C194.062 72.3828 194.578 72.5703 195.094 72.8047C195.609 72.9922 196.125 73.2031 196.641 73.4375C197.719 73.9062 198.727 74.4219 199.664 74.9844C200.648 75.5469 201.516 76.2266 202.266 77.0234C203.016 77.7734 203.602 78.6641 204.023 79.6953C204.445 80.6797 204.656 81.8281 204.656 83.1406Z" fill="black"/>
<path d="M253.312 47.2812V47.5625C252.984 47.6562 252.82 47.8906 252.82 48.2656C252.305 48.5 251.766 48.6875 251.203 48.8281C250.641 48.9219 250.102 49.0859 249.586 49.3203C249.07 49.2734 248.531 49.25 247.969 49.25C247.453 49.2031 246.938 49.1797 246.422 49.1797C245.016 49.1797 243.609 49.2266 242.203 49.3203C240.797 49.4141 239.391 49.4141 237.984 49.3203C237.328 49.6953 236.602 50 235.805 50.2344C235.055 50.4219 234.328 50.5156 233.625 50.5156C233.062 50.5156 232.57 50.4453 232.148 50.3047C231.023 50.8672 229.781 51.3359 228.422 51.7109C227.109 52.0859 225.773 52.4609 224.414 52.8359C223.055 53.1641 221.742 53.5625 220.477 54.0312C219.258 54.4531 218.18 55.0625 217.242 55.8594C217.148 56.5156 217.078 57.1719 217.031 57.8281C216.984 58.4375 216.961 59.0469 216.961 59.6562C216.961 60.3125 216.984 60.9219 217.031 61.4844C217.125 62.0469 217.289 62.6094 217.523 63.1719C217.758 63.2656 218.016 63.3359 218.297 63.3828C218.625 63.4297 218.906 63.4531 219.141 63.4531C219.375 63.4531 219.609 63.4297 219.844 63.3828C220.078 63.2891 220.242 63.125 220.336 62.8906C221.039 62.7969 221.742 62.7734 222.445 62.8203C223.148 62.8203 223.852 62.8203 224.555 62.8203C225.258 62.8203 225.938 62.7969 226.594 62.75C227.297 62.7031 227.977 62.5859 228.633 62.3984C229.383 62.2109 230.109 62.0937 230.812 62.0469C231.562 62 232.289 61.9531 232.992 61.9062C233.695 61.8594 234.422 61.7891 235.172 61.6953C235.922 61.5547 236.695 61.2969 237.492 60.9219C238.102 61.1562 238.711 61.2734 239.32 61.2734C239.977 61.2734 240.609 61.3203 241.219 61.4141C241.547 61.6484 241.805 61.9062 241.992 62.1875C242.227 62.4687 242.344 62.7969 242.344 63.1719C242.344 63.8281 242.109 64.4844 241.641 65.1406C241.172 65.7969 240.797 66.4062 240.516 66.9688H239.742C238.617 66.9688 237.516 67.1328 236.438 67.4609C235.406 67.7422 234.352 68.0938 233.273 68.5156C232.242 68.8906 231.188 69.2422 230.109 69.5703C229.078 69.8516 228 69.9922 226.875 69.9922C226.688 69.9922 226.57 70.1094 226.523 70.3438C226.523 70.5312 226.477 70.6719 226.383 70.7656C226.148 70.7188 225.797 70.6953 225.328 70.6953C224.25 70.6953 223.219 70.8125 222.234 71.0469C221.25 71.2812 220.242 71.3984 219.211 71.3984C218.93 71.3984 218.648 71.3984 218.367 71.3984C218.086 71.3516 217.805 71.3047 217.523 71.2578C217.289 71.6328 216.984 71.8906 216.609 72.0312C216.234 72.125 215.883 72.3125 215.555 72.5938C215.414 73.0156 215.32 73.5312 215.273 74.1406C215.273 74.75 215.25 75.3828 215.203 76.0391C215.203 76.6484 215.156 77.2344 215.062 77.7969C214.969 78.3594 214.781 78.8047 214.5 79.1328C214.547 79.3672 214.734 79.4609 215.062 79.4141C215.391 79.3203 215.555 79.4609 215.555 79.8359C215.555 80.2578 215.508 80.7031 215.414 81.1719C215.32 81.6406 215.273 82.1094 215.273 82.5781C215.273 83.4688 215.367 84.4531 215.555 85.5312C215.789 86.5625 216.117 87.5234 216.539 88.4141C217.008 89.3047 217.617 90.0547 218.367 90.6641C219.117 91.2266 220.055 91.5078 221.18 91.5078C221.93 91.5078 222.633 91.3672 223.289 91.0859C223.945 90.8047 224.484 90.3359 224.906 89.6797L225.258 89.6094C225.445 89.6094 225.609 89.6328 225.75 89.6797C225.938 89.7266 226.125 89.75 226.312 89.75C226.594 89.75 226.945 89.5859 227.367 89.2578C227.836 88.8828 228.328 88.4609 228.844 87.9922C229.406 87.5234 229.969 87.0781 230.531 86.6562C231.094 86.1875 231.633 85.8594 232.148 85.6719C232.477 85.0156 232.781 84.3594 233.062 83.7031C233.391 83.0469 233.859 82.5312 234.469 82.1562V80.1172C234.938 79.6016 235.43 79.1328 235.945 78.7109C236.508 78.2891 236.93 77.75 237.211 77.0938C237.445 77.1875 237.656 77.2578 237.844 77.3047C238.078 77.3516 238.312 77.375 238.547 77.375C238.781 77.375 239.016 77.3516 239.25 77.3047C239.531 77.2578 239.789 77.1875 240.023 77.0938C240.398 77.6094 240.68 78.1953 240.867 78.8516C241.102 79.4609 241.383 80.0469 241.711 80.6094C241.289 81.4531 240.797 82.4609 240.234 83.6328C239.672 84.8047 239.062 85.9766 238.406 87.1484C237.75 88.3203 237.047 89.4453 236.297 90.5234C235.594 91.5547 234.891 92.3516 234.188 92.9141C234.047 93.0547 233.742 93.2188 233.273 93.4062C232.758 93.7812 232.289 94.1328 231.867 94.4609C231.445 94.8359 231.047 95.2578 230.672 95.7266C229.312 96.1484 228 96.7109 226.734 97.4141C225.516 98.1172 224.297 98.7969 223.078 99.4531C222.516 99.3125 221.906 99.2422 221.25 99.2422C220.688 99.2422 220.125 99.2656 219.562 99.3125C219 99.4062 218.391 99.4531 217.734 99.4531C217.547 99.2188 217.266 99.0547 216.891 98.9609C216.562 98.9141 216.445 98.6797 216.539 98.2578C214.945 98.1641 213.656 97.7188 212.672 96.9219C211.688 96.1719 210.844 95.2344 210.141 94.1094C209.484 92.9844 208.945 91.7656 208.523 90.4531C208.102 89.1406 207.656 87.875 207.188 86.6562V86.4453C207.188 86.2109 207.281 86.0703 207.469 86.0234C207.656 85.9766 207.75 85.8359 207.75 85.6016C207.75 85.5078 207.727 85.4375 207.68 85.3906C207.539 84.875 207.422 84.4297 207.328 84.0547C207.234 83.6797 207.188 83.2344 207.188 82.7188C207.188 81.9688 207.234 81.2422 207.328 80.5391C207.422 79.7891 207.469 79.0391 207.469 78.2891C207.469 77.5391 207.375 76.8828 207.188 76.3203C207.375 76.0859 207.539 75.7812 207.68 75.4062C207.773 74.9844 207.844 74.5625 207.891 74.1406C207.938 73.7188 207.961 73.2969 207.961 72.875C208.008 72.4531 208.078 72.0781 208.172 71.75C207.984 71.2344 207.82 70.7891 207.68 70.4141C207.539 69.9922 207.469 69.5 207.469 68.9375V68.4453C207.938 67.6484 208.336 66.8281 208.664 65.9844C208.992 65.1406 209.344 64.2734 209.719 63.3828V63.1719C209.719 61.8125 209.672 60.4531 209.578 59.0937C209.484 57.7344 209.438 56.375 209.438 55.0156V53.6797C209.438 53.2109 209.461 52.7656 209.508 52.3437C209.883 52.1562 210.164 51.8984 210.352 51.5703C210.539 51.2422 210.82 50.9844 211.195 50.7969H213.516L213.938 50.0937C214.078 49.8594 214.172 49.6016 214.219 49.3203C214.734 49.1797 215.227 48.9922 215.695 48.7578C216.211 48.4766 216.68 48.1953 217.102 47.9141C217.758 47.5391 218.344 47.2109 218.859 46.9297C219.422 46.6016 219.961 46.3437 220.477 46.1562C221.039 45.9219 221.625 45.7344 222.234 45.5937C222.844 45.4531 223.547 45.3359 224.344 45.2422C224.719 45.2422 224.953 45.1719 225.047 45.0312C225.188 44.8906 225.375 44.7266 225.609 44.5391C226.172 44.6328 226.734 44.7266 227.297 44.8203C227.859 44.8672 228.422 44.8906 228.984 44.8906C230.109 44.8906 231.164 44.6797 232.148 44.2578C233.555 44.2578 234.938 44.2344 236.297 44.1875C237.703 44.1406 239.109 44.1172 240.516 44.1172C241.734 44.1172 242.953 44.1641 244.172 44.2578C245.391 44.3516 246.586 44.5156 247.758 44.75C248.18 44.6094 248.648 44.5391 249.164 44.5391C249.727 44.5391 250.289 44.6094 250.852 44.75C251.461 44.8437 252.047 44.8437 252.609 44.75C252.656 45.2656 252.773 45.7109 252.961 46.0859C253.195 46.4141 253.312 46.8125 253.312 47.2812Z" fill="black"/>
<path d="M304.359 21.4062C303.703 22.3437 303 23.2344 302.25 24.0781C301.547 24.875 300.656 25.5078 299.578 25.9766C299.016 29.2109 298.547 32.4687 298.172 35.75C297.844 39.0312 297.469 42.3125 297.047 45.5937C296.672 48.875 296.227 52.1562 295.711 55.4375C295.242 58.6719 294.586 61.8828 293.742 65.0703L293.812 65.9141C293.906 66.8516 293.789 67.7422 293.461 68.5859C293.133 69.4297 292.992 70.3438 293.039 71.3281C292.383 72.9688 291.82 74.7969 291.352 76.8125C290.883 78.7812 290.602 80.6562 290.508 82.4375C290.039 83.2344 289.641 84.1016 289.312 85.0391C289.031 85.9766 288.727 86.9375 288.398 87.9219C288.117 88.8594 287.789 89.7734 287.414 90.6641C287.039 91.5078 286.547 92.2812 285.938 92.9844C285.797 94.0625 285.516 95.0703 285.094 96.0078C284.719 96.9922 284.273 97.9531 283.758 98.8906C283.289 99.8281 282.82 100.742 282.352 101.633C281.93 102.57 281.625 103.555 281.438 104.586C280.641 105.805 279.844 106.977 279.047 108.102C278.25 109.273 277.523 110.492 276.867 111.758C276.258 112.039 275.719 112.344 275.25 112.672C274.828 113.047 274.406 113.375 273.984 113.656C273.562 113.984 273.07 114.266 272.508 114.5C271.992 114.734 271.359 114.852 270.609 114.852C270.422 114.852 270.234 114.828 270.047 114.781C269.906 114.781 269.742 114.781 269.555 114.781C268.898 114.266 268.242 113.75 267.586 113.234C266.93 112.766 266.227 112.344 265.477 111.969C265.477 111.688 265.43 111.453 265.336 111.266C265.289 111.078 265.242 110.891 265.195 110.703C265.148 110.516 265.125 110.328 265.125 110.141C265.125 109.953 265.172 109.719 265.266 109.438C264.844 109.156 264.352 108.641 263.789 107.891C263.273 107.188 263.016 106.578 263.016 106.062C263.016 105.594 263.18 105.359 263.508 105.359C263.414 104.891 263.25 104.422 263.016 103.953C262.828 103.531 262.734 103.086 262.734 102.617C262.734 102.289 262.828 101.938 263.016 101.562C262.5 100.344 262.031 99.0781 261.609 97.7656C261.188 96.5 260.906 95.1875 260.766 93.8281C260.297 93.2188 259.922 92.5156 259.641 91.7188C259.406 90.875 259.219 90.0078 259.078 89.1172C258.938 88.2266 258.82 87.3594 258.727 86.5156C258.633 85.625 258.516 84.8047 258.375 84.0547C258.328 83.7734 258.211 83.3281 258.023 82.7188C257.836 82.0625 257.742 81.6172 257.742 81.3828C257.742 81.1016 257.789 80.8906 257.883 80.75C258.023 80.6094 258.141 80.4219 258.234 80.1875C257.672 77.9375 257.203 75.6641 256.828 73.3672C256.5 71.0703 256.172 68.7734 255.844 66.4766C255.562 64.1797 255.211 61.9062 254.789 59.6562C254.414 57.3594 253.875 55.1094 253.172 52.9062V52.2734C253.172 50.7734 252.586 49.5781 251.414 48.6875C251.648 47.9844 251.766 47.3984 251.766 46.9297C251.766 46.3203 251.672 45.7344 251.484 45.1719C251.344 44.6094 251.18 44.0469 250.992 43.4844C250.805 42.9219 250.664 42.3594 250.57 41.7969C250.523 41.2344 250.57 40.6719 250.711 40.1094C250.195 39.5469 249.773 38.9375 249.445 38.2812C249.117 37.625 248.695 37.0625 248.18 36.5937L248.109 36.1719C248.109 35.9375 248.18 35.7266 248.32 35.5391C248.414 35.3516 248.461 35.1406 248.461 34.9062C248.461 34.5781 248.391 34.2969 248.25 34.0625C248.062 33.8281 247.875 33.6172 247.688 33.4297C247.453 33.2422 247.266 33.0547 247.125 32.8672C246.938 32.6797 246.844 32.4687 246.844 32.2344C246.844 31.6719 247.031 31.2266 247.406 30.8984C247.781 30.5703 248.203 30.2891 248.672 30.0547C249.141 29.7734 249.586 29.4922 250.008 29.2109C250.477 28.9297 250.781 28.5312 250.922 28.0156C251.297 28.1094 251.672 28.1797 252.047 28.2266C252.422 28.2266 252.797 28.3203 253.172 28.5078C253.219 28.4609 253.242 28.3906 253.242 28.2969C253.242 28.1562 253.008 28.0391 252.539 27.9453C252.117 27.8047 251.836 27.6406 251.695 27.4531C252.07 27.3594 252.352 27.3125 252.539 27.3125C253.477 27.3125 254.367 27.5469 255.211 28.0156C256.102 28.4844 256.945 28.9766 257.742 29.4922C257.836 29.9141 257.859 30.3594 257.812 30.8281C257.766 31.25 257.906 31.6484 258.234 32.0234C258.188 32.2578 258.164 32.4687 258.164 32.6562C258.211 32.8437 258.234 33.0312 258.234 33.2187C258.234 33.4531 258.188 33.6641 258.094 33.8516C258.047 33.9922 257.93 34.0625 257.742 34.0625C258.07 34.625 258.281 35.3047 258.375 36.1016C258.516 36.8984 258.633 37.7187 258.727 38.5625C258.867 39.4062 259.031 40.2266 259.219 41.0234C259.406 41.8203 259.758 42.5234 260.273 43.1328C260.18 43.4141 260.109 43.6953 260.062 43.9766C260.062 44.2578 260.062 44.5625 260.062 44.8906C260.062 46.3906 260.25 47.8672 260.625 49.3203C261 50.7734 261.188 52.25 261.188 53.75C261.188 54.6406 261.047 55.4609 260.766 56.2109C260.766 56.6328 260.906 56.9844 261.188 57.2656C261.469 57.5 261.656 57.8281 261.75 58.25C261.516 58.8125 261.398 59.3516 261.398 59.8672C261.398 60.9453 261.609 61.9766 262.031 62.9609C262.453 63.8984 262.664 64.8828 262.664 65.9141C262.664 66.2422 262.617 66.5469 262.523 66.8281C262.43 67.1094 262.336 67.3672 262.242 67.6016C262.664 68.0234 262.875 68.5625 262.875 69.2188C262.922 69.875 263.133 70.4141 263.508 70.8359C263.461 71.0703 263.414 71.3047 263.367 71.5391C263.367 71.7734 263.25 71.9609 263.016 72.1016C263.25 72.4297 263.367 72.875 263.367 73.4375C263.414 73.9531 263.625 74.2578 264 74.3516C263.906 74.5859 263.836 74.7969 263.789 74.9844C263.742 75.1719 263.719 75.3828 263.719 75.6172C263.719 76.1328 263.789 76.6016 263.93 77.0234L264.352 78.2891C264.492 78.7109 264.586 79.1562 264.633 79.625C264.727 80.0938 264.68 80.6094 264.492 81.1719C264.68 81.4531 264.82 81.7812 264.914 82.1562C265.055 82.5312 265.172 82.9297 265.266 83.3516C265.359 83.7266 265.5 84.0781 265.688 84.4062C265.875 84.6875 266.156 84.875 266.531 84.9688C266.578 85.25 266.461 85.3906 266.18 85.3906C265.945 85.3906 265.828 85.5078 265.828 85.7422C265.828 86.1172 265.969 86.5859 266.25 87.1484C266.531 87.6641 266.789 88.0391 267.023 88.2734C266.977 88.4609 266.953 88.6484 266.953 88.8359V89.4688C266.953 90.125 267.047 90.8047 267.234 91.5078C267.422 92.1641 267.586 92.8203 267.727 93.4766C267.914 94.1797 268.055 94.8594 268.148 95.5156C268.242 96.1719 268.195 96.7812 268.008 97.3438C268.383 98 268.711 98.7031 268.992 99.4531C269.273 100.203 269.719 100.836 270.328 101.352C270.328 102.148 270.492 102.898 270.82 103.602C271.148 104.352 271.57 105.055 272.086 105.711C272.555 105.711 272.906 105.547 273.141 105.219C273.375 104.938 273.562 104.609 273.703 104.234C273.844 103.859 274.008 103.508 274.195 103.18C274.383 102.852 274.688 102.664 275.109 102.617C275.156 102.148 275.273 101.75 275.461 101.422C275.695 101.141 275.906 100.836 276.094 100.508C276.328 100.18 276.516 99.8281 276.656 99.4531C276.844 99.0781 276.914 98.6094 276.867 98.0469L277.641 97.8359C277.875 96.5703 278.227 95.4219 278.695 94.3906C279.211 93.4062 279.773 92.375 280.383 91.2969V90.9453C280.383 90.4766 280.453 90.0781 280.594 89.75C280.734 89.4219 280.758 89 280.664 88.4844C280.992 88.3906 281.227 88.2031 281.367 87.9219C281.508 87.6406 281.625 87.3594 281.719 87.0781C281.812 86.75 281.906 86.4453 282 86.1641C282.141 85.8359 282.352 85.6016 282.633 85.4609V84.8984C282.586 84.4766 282.609 84.0781 282.703 83.7031C282.844 83.2812 282.82 82.8594 282.633 82.4375C283.008 82.2969 283.289 82.0625 283.477 81.7344C283.664 81.4062 283.805 81.0547 283.898 80.6797C284.039 80.3047 284.109 79.9062 284.109 79.4844C284.156 79.0625 284.18 78.6875 284.18 78.3594C284.508 77.9375 284.742 77.4453 284.883 76.8828C285.023 76.2734 285.141 75.6641 285.234 75.0547C285.328 74.4453 285.445 73.8594 285.586 73.2969C285.773 72.7344 286.055 72.2422 286.43 71.8203C286.336 71.5859 286.289 71.375 286.289 71.1875V70.5547C286.289 69.6641 286.43 68.8672 286.711 68.1641C286.992 67.4141 287.25 66.6172 287.484 65.7734C288.094 63.6641 288.516 61.5078 288.75 59.3047C289.031 57.0547 289.43 54.8516 289.945 52.6953C289.992 52.4609 290.086 52.0859 290.227 51.5703C290.367 51.0547 290.508 50.5391 290.648 50.0234C290.789 49.4609 290.906 48.9687 291 48.5469C291.141 48.0781 291.211 47.7734 291.211 47.6328C291.211 47.2578 291.117 47 290.93 46.8594C290.789 46.7187 290.719 46.4844 290.719 46.1562C291 45.7344 291.188 45.1953 291.281 44.5391C291.375 43.8828 291.445 43.2031 291.492 42.5C291.539 41.75 291.539 41.0469 291.492 40.3906C291.492 39.6875 291.492 39.0781 291.492 38.5625C291.492 38.0469 291.609 37.3906 291.844 36.5937C292.078 35.7969 292.242 35.0937 292.336 34.4844C292.57 32.8906 292.711 31.3203 292.758 29.7734C292.852 28.1797 292.945 26.5859 293.039 24.9922C293.367 24.8047 293.602 24.5703 293.742 24.2891C293.883 23.9609 293.953 23.6328 293.953 23.3047C293.953 22.7891 293.883 22.2969 293.742 21.8281C293.648 21.3594 293.602 20.8672 293.602 20.3516C293.602 20.1172 293.625 19.8828 293.672 19.6484C293.719 19.3672 293.836 19.1328 294.023 18.9453C293.977 18.6172 293.93 18.2891 293.883 17.9609C293.883 17.6328 293.766 17.3516 293.531 17.1172C293.766 16.5078 293.883 15.8984 293.883 15.2891C293.883 14.7266 293.812 14.1641 293.672 13.6016C293.578 13.0391 293.531 12.4531 293.531 11.8437C293.531 10.6719 294.023 9.82812 295.008 9.3125H295.992C296.461 9.3125 296.93 9.28906 297.398 9.24218C297.867 9.19531 298.359 9.05468 298.875 8.82031C299.484 9.47656 300.117 10.2031 300.773 11C301.43 11.75 301.992 12.5703 302.461 13.4609C302.93 14.3516 303.281 15.2656 303.516 16.2031C303.75 17.1406 303.773 18.125 303.586 19.1562C303.773 19.5312 303.891 19.9062 303.938 20.2812C303.984 20.6562 304.125 21.0312 304.359 21.4062ZM290.016 59.7266C289.828 59.6797 289.688 59.6094 289.594 59.5156C289.547 59.375 289.406 59.2812 289.172 59.2344V60.0078H289.734L290.016 59.7266Z" fill="black"/>
<path d="M341.766 83.1406C341.766 83.9375 341.555 84.6406 341.133 85.25C340.758 85.8125 340.617 86.5156 340.711 87.3594C340.055 87.7344 339.516 88.2266 339.094 88.8359C338.672 89.4453 338.273 90.0781 337.898 90.7344C334.805 92.75 331.477 94.3672 327.914 95.5859C324.398 96.8516 320.766 97.4844 317.016 97.4844C316.781 97.4844 316.57 97.3672 316.383 97.1328C316.195 96.9453 316.008 96.7344 315.82 96.5C315.633 96.2656 315.422 96.0312 315.188 95.7969C315 95.6094 314.766 95.5156 314.484 95.5156C314.156 95.5156 313.898 95.5859 313.711 95.7266C313.711 95.6328 313.711 95.5391 313.711 95.4453C313.758 95.3984 313.781 95.3281 313.781 95.2344C313.781 94.6719 313.711 94.0859 313.57 93.4766C313.43 92.9141 313.359 92.3516 313.359 91.7891C313.359 91.1328 313.477 90.5938 313.711 90.1719H314.555C315.023 90.1719 315.469 90.1484 315.891 90.1016C316.359 90.0078 316.852 89.9609 317.367 89.9609C317.883 89.9609 318.352 90.1016 318.773 90.3828C321.352 90.2891 323.789 89.8203 326.086 88.9766C328.43 88.0859 330.797 87.2188 333.188 86.375C333.562 85.8594 333.773 85.2969 333.82 84.6875C333.914 84.0312 334.102 83.4219 334.383 82.8594C333.164 81.8281 331.922 81.0312 330.656 80.4688C329.438 79.8594 328.008 79.6484 326.367 79.8359C325.383 79.2266 324.328 78.875 323.203 78.7812C322.125 78.6875 321.023 78.5469 319.898 78.3594C319.617 78.3125 319.312 78.2656 318.984 78.2188C318.703 78.125 318.398 78.0781 318.07 78.0781C317.836 78.0781 317.602 78.1484 317.367 78.2891C317.18 78.3828 317.133 78.5469 317.227 78.7812C316.992 78.4062 316.664 78.1953 316.242 78.1484C315.867 78.0547 315.539 77.8672 315.258 77.5859C313.758 77.4922 312.445 77.2344 311.32 76.8125C310.195 76.3438 308.953 75.8281 307.594 75.2656C307.219 75.125 306.844 75.0312 306.469 74.9844C306.141 74.8906 305.812 74.75 305.484 74.5625C304.641 74.1406 303.961 73.5781 303.445 72.875C302.93 72.1719 302.531 71.3984 302.25 70.5547C301.922 69.6641 301.688 68.75 301.547 67.8125C301.406 66.875 301.266 66.0078 301.125 65.2109C301.547 64.4609 301.945 63.6875 302.32 62.8906C302.648 62.0937 302.93 61.25 303.164 60.3594C303.445 60.2187 303.727 60.1016 304.008 60.0078C304.289 59.9141 304.594 59.7969 304.922 59.6562C304.875 59.5625 304.852 59.4453 304.852 59.3047C304.852 59.0703 304.922 58.8359 305.062 58.6016C305.25 58.3672 305.297 58.1328 305.203 57.8984C306.234 56.9609 307.219 56 308.156 55.0156C309.141 53.9844 309.984 52.8594 310.688 51.6406C311.391 51.4062 311.953 51.0547 312.375 50.5859C312.797 50.1172 313.219 49.6484 313.641 49.1797C314.062 48.6641 314.531 48.2187 315.047 47.8437C315.562 47.4219 316.219 47.1641 317.016 47.0703C317.203 46.7422 317.461 46.4844 317.789 46.2969C318.117 46.0625 318.445 45.8516 318.773 45.6641C319.102 45.4766 319.406 45.2656 319.688 45.0312C319.969 44.7969 320.18 44.4687 320.32 44.0469C321.07 44.0469 321.75 43.9062 322.359 43.625C323.016 43.3437 323.648 43.0391 324.258 42.7109C324.867 42.3828 325.477 42.0781 326.086 41.7969C326.742 41.5156 327.445 41.375 328.195 41.375C328.383 41.375 328.57 41.3984 328.758 41.4453C328.945 41.4453 329.156 41.4687 329.391 41.5156C329.719 41.8437 329.93 42.2422 330.023 42.7109C330.164 43.1328 330.258 43.6016 330.305 44.1172C330.352 44.6328 330.375 45.1484 330.375 45.6641C330.422 46.1797 330.516 46.6484 330.656 47.0703C330.234 47.8672 329.766 48.6641 329.25 49.4609C328.781 50.2578 328.148 50.8672 327.352 51.2891H327.211C326.883 51.3359 326.578 51.2656 326.297 51.0781C326.016 50.8906 325.688 50.7969 325.312 50.7969C325.078 50.7969 324.891 50.8672 324.75 51.0078L324.398 51.3594C324.305 51.4531 324.164 51.5469 323.977 51.6406C323.836 51.7344 323.625 51.7344 323.344 51.6406C322.688 51.875 322.43 52.2734 322.57 52.8359C321.68 52.9297 320.93 53.2109 320.32 53.6797C319.711 54.1016 319.148 54.5937 318.633 55.1562C318.117 55.6719 317.602 56.1641 317.086 56.6328C316.57 57.0547 315.961 57.2891 315.258 57.3359C314.461 58.7422 313.477 59.9844 312.305 61.0625C311.18 62.1406 310.242 63.3594 309.492 64.7188C309.633 65.0938 309.727 65.4922 309.773 65.9141C309.82 66.3359 309.891 66.7812 309.984 67.25C310.406 67.8125 310.898 68.3047 311.461 68.7266C312.07 69.1484 312.656 69.5703 313.219 69.9922H313.43C314.367 69.9922 315.234 70.1797 316.031 70.5547C316.828 70.8828 317.672 71.0469 318.562 71.0469C319.031 71.0469 319.43 70.9531 319.758 70.7656C320.977 71.0469 322.172 71.2812 323.344 71.4688C324.562 71.6562 325.781 71.7969 327 71.8906C327.609 71.9844 328.219 72.0312 328.828 72.0312C329.484 72.0312 330.094 72.1016 330.656 72.2422C331.172 72.3828 331.688 72.5703 332.203 72.8047C332.719 72.9922 333.234 73.2031 333.75 73.4375C334.828 73.9062 335.836 74.4219 336.773 74.9844C337.758 75.5469 338.625 76.2266 339.375 77.0234C340.125 77.7734 340.711 78.6641 341.133 79.6953C341.555 80.6797 341.766 81.8281 341.766 83.1406Z" fill="black"/>
</svg>
